<svg xmlns="http://www.w3.org/2000/svg" xmlns:xlink="http://www.w3.org/1999/xlink" width="500" zoomAndPan="magnify" viewBox="0 0 375 374.999991" height="500" preserveAspectRatio="xMidYMid meet" version="1.0"><defs><g/></defs><rect x="-37.5" width="450" fill="#ffffff" y="-37.499999" height="449.999989" fill-opacity="1"/><rect x="-37.5" width="450" fill="#334031" y="-37.499999" height="449.999989" fill-opacity="1"/><g fill="#ffffff" fill-opacity="1"><g transform="translate(18.018512, 298.835586)"><g><path d="M 148.171875 -227.640625 L 148.171875 -182.109375 L 68.421875 -182.109375 L 68.421875 -136.859375 L 142.09375 -136.859375 L 142.09375 -91.328125 L 68.421875 -91.328125 L 68.421875 0 L 16.5625 0 L 16.5625 -227.640625 Z M 148.171875 -227.640625 "/></g></g></g><g fill="#ffffff" fill-opacity="1"><g transform="translate(88.686692, 302.344208)"><g><path d="M 48.015625 -59.046875 C 56.835938 -59.046875 64.328125 -55.960938 70.484375 -49.796875 C 76.648438 -43.640625 79.734375 -36.144531 79.734375 -27.3125 C 79.734375 -18.664062 76.648438 -11.257812 70.484375 -5.09375 C 64.328125 1.0625 56.835938 4.140625 48.015625 4.140625 C 39.367188 4.140625 31.960938 1.0625 25.796875 -5.09375 C 19.640625 -11.257812 16.5625 -18.664062 16.5625 -27.3125 C 16.5625 -36.144531 19.640625 -43.640625 25.796875 -49.796875 C 31.960938 -55.960938 39.367188 -59.046875 48.015625 -59.046875 Z M 48.015625 -59.046875 "/></g></g></g><g fill="#ffffff" fill-opacity="1"><g transform="translate(171.186584, 302.344208)"><g><path d="M 52.421875 -141.546875 L 86.921875 -64.5625 L 121.40625 -141.546875 L 179.34375 -141.546875 L 103.46875 0 L 70.359375 0 L -5.515625 -141.546875 Z M 52.421875 -141.546875 "/></g></g></g></svg>